# xmcd CD database file
#
# Track frame offsets:
#	150
#	20814
#	40321
#	58247
#	84375
#	101110
#	112943
#	135314
#	156720
#	174547
#
# Disc length: 2588 seconds
#
# Revision: 0
# Processed by: cddbd v1.5PL3 Copyright (c) Steve Scherf et al.
# Submitted via: CDex 1.51
#
DISCID=870a1a0a
DTITLE=Steve Gornall - Steppin' Out
DYEAR=1997
DGENRE=Blues
TTITLE0=Vodka, Beer, Wine and Whiskey
TTITLE1=Blue Monday
TTITLE2=Who's Been Talking?
TTITLE3=Howl, Wind, Howl
TTITLE4=Highway 29
TTITLE5=Steppin' Out
TTITLE6=Good Woman Blues
TTITLE7=Honk if You Have the Blues
TTITLE8=Cajun BBQ
TTITLE9=Seven Year Itch
EXTD=YEAR: 1997
EXTT0=
EXTT1=
EXTT2=
EXTT3=
EXTT4=
EXTT5=
EXTT6=
EXTT7=
EXTT8=
EXTT9=
PLAYORDER=
